# xmcd
#
# Track frame offsets: 
#        150
#        12712
#        30580
#        47030
#        60936
#        83907
#        97186
#        120524
#        140879
#        153631
#        170422
#        192829
#
# Disc length: 2776 seconds
#
# Revision: 0
# Processed by: cddbd v1.5.2PL0 Copyright (c) Steve Scherf et al.
# Submitted via: ExactAudioCopy v1.0b3
#
DISCID=a20ad60c
DTITLE=Ron Hawkins - Straitjacket Love
DYEAR=2011
DGENRE=Country
TTITLE0=One Hundred Five
TTITLE1=Corner Room
TTITLE2=The Sickness (That's What They Call Love)
TTITLE3=Hong Kong Station
TTITLE4=Waitin' on Something That's Already Here
TTITLE5=Black
TTITLE6=Kill the Lights
TTITLE7=Company Ink
TTITLE8=Straitjacket Love
TTITLE9=Lucky Street Lazarus
TTITLE10=Diamonds in the Water
TTITLE11=Prairie Girl
EXTD=
EXTT0=
EXTT1=
EXTT2=
EXTT3=
EXTT4=
EXTT5=
EXTT6=
EXTT7=
EXTT8=
EXTT9=
EXTT10=
EXTT11=
PLAYORDER=
